<svg id="Layer_1" data-name="Layer 1" xmlns="http://www.w3.org/2000/svg" viewBox="0 0 229.19 36.11"><defs><style>.cls-1{fill:#fff;}</style></defs><title>logo_white</title><g id="SvgjsG1227"><path class="cls-1" d="M.05,49.8V49H1.13c1.62,0,2.7-.81,3.5-3.24L16.76,14h1.35L32.39,49h2.69v.81H21.88V49h3.77L20.8,37.4H8.68L5.44,46c-.81,1.89.54,3.24,3,3.24H10v.81C10,49.8.05,49.8.05,49.8ZM9,36.59H20.53L14.6,22ZM36.16,49.8V49h1.62C40.2,49,41,47.91,41,45.75v-28l-.27-.27c-1.08-1.62-1.88-2.42-4-2.42H35.62v-.81H46.4L65.8,40.1V18.27C65.8,16.11,65,15,62.57,15H61v-.81H71.46V15H69.84c-2.42,0-3.23,1.07-3.23,3.23v31.8H65.26l-23.17-31V46c0,2.16.81,3.24,3.23,3.24h1.62v.81L36.16,49.8Zm38.27,0V49H79V15H74.43v-.81H90.59c12.94,0,18.6,6.73,18.6,17.24,0,10.24-5.12,18.33-18.6,18.33ZM85.74,49h5.12c7.55,0,11.32-5.93,11.32-17,0-11.58-3.77-17-11.32-17H85.74Z" transform="translate(-0.05 -13.96)"/></g><g id="SvgjsG1228"><path class="cls-1" d="M112,49.78V49h4.59v-34H112v-.81h15.13c10,0,13.51,3.78,13.51,9.19,0,4.32-2.7,7.56-10.54,8.65h0c4.87.81,8.92,3.24,9.46,8.91.54,4.06.27,7.84,2.44,7.84,1.35,0,2.43-1.62,2.43-3.78h.81q0,4.86-4.87,4.86c-6.48,0-7.56-5.67-7.83-9.46-.27-3-.54-8.1-4.6-8.1H123.3V48.7h4.59v.81L112,49.78ZM123.3,31.41h4.32c4.6,0,6.22-2.71,6.22-8.11,0-5.68-1.62-8.65-6.49-8.65h-4Zm24,18.37V49H152v-34h-4.6v-.81h27.57a75.06,75.06,0,0,0-1.62,10h-.81V18.7c0-3.24-.81-4-3-4H158.43V31.41h8.65V26.54h.81V37.35h-.81V32.22H158.7V48.7h11.08c3.25,0,3.79-3.24,4.87-10h.54a73.55,73.55,0,0,0-.81,10.81h-27Zm45.41.27-13-35.13H176v-.81h14.86v.81h-4.32l9.73,26.76,6.49-17.57-3.25-9.19h-4v-.81h15.13v.81H206l9.73,26.49,8.11-23.79c.54-1.89-.54-3-3-3h-1.62v-.54h10v.81h-1.08c-1.62,0-2.7.81-3.51,3.24L213.57,50.05H212l-9.19-24.59-9.19,24.59Z" transform="translate(-0.05 -13.96)"/></g></svg>