<?xml version="1.0" encoding="utf-8"?>
<!-- Generator: Adobe Illustrator 22.0.0, SVG Export Plug-In . SVG Version: 6.00 Build 0)  -->
<svg version="1.1" id="Layer_1" xmlns="http://www.w3.org/2000/svg" xmlns:xlink="http://www.w3.org/1999/xlink" x="0px" y="0px"
	 viewBox="0 0 229.7 64" style="enable-background:new 0 0 229.7 64;" xml:space="preserve">
<style type="text/css">
	.st0{fill:#111111;}
</style>
<g id="SvgjsG1227" transform="matrix(2.6946104629909806,0,0,2.6946104629909806,1.1317364394273757,-18.10778303083801)">
	<path class="st0" d="M-0.4,25.2v-0.3H0c0.6,0,1-0.3,1.3-1.2l4.5-11.8h0.5l5.3,13h1v0.3H7.7v-0.3h1.4l-1.8-4.3H2.8l-1.2,3.2
		c-0.3,0.7,0.2,1.2,1.1,1.2h0.6v0.3C3.3,25.2-0.4,25.2-0.4,25.2z M2.9,20.3h4.3L5,14.9L2.9,20.3z M13,25.2v-0.3h0.6
		c0.9,0,1.2-0.4,1.2-1.2V13.3l-0.1-0.1c-0.4-0.6-0.7-0.9-1.5-0.9h-0.4V12h4l7.2,9.6v-8.1c0-0.8-0.3-1.2-1.2-1.2h-0.6V12h3.9v0.3
		h-0.6c-0.9,0-1.2,0.4-1.2,1.2v11.8h-0.5l-8.6-11.5v10c0,0.8,0.3,1.2,1.2,1.2h0.6v0.3L13,25.2L13,25.2z M27.2,25.2v-0.3h1.7V12.3
		h-1.7V12h6c4.8,0,6.9,2.5,6.9,6.4c0,3.8-1.9,6.8-6.9,6.8C33.2,25.2,27.2,25.2,27.2,25.2z M31.4,24.9h1.9c2.8,0,4.2-2.2,4.2-6.3
		c0-4.3-1.4-6.3-4.2-6.3h-1.9C31.4,12.3,31.4,24.9,31.4,24.9z"/>
</g>
<g id="SvgjsG1228" transform="matrix(2.702701797095547,0,0,2.702701797095547,110.32432487291328,-18.32431230761399)">
	<path class="st0" d="M0.6,25.2v-0.3h1.7V12.3H0.6V12h5.6c3.7,0,5,1.4,5,3.4c0,1.6-1,2.8-3.9,3.2v0c1.8,0.3,3.3,1.2,3.5,3.3
		c0.2,1.5,0.1,2.9,0.9,2.9c0.5,0,0.9-0.6,0.9-1.4h0.3c0,1.2-0.6,1.8-1.8,1.8c-2.4,0-2.8-2.1-2.9-3.5c-0.1-1.1-0.2-3-1.7-3H4.8v6.1
		h1.7v0.3L0.6,25.2L0.6,25.2z M4.8,18.4h1.6c1.7,0,2.3-1,2.3-3c0-2.1-0.6-3.2-2.4-3.2H4.8V18.4z M13.7,25.2v-0.3h1.7V12.3h-1.7V12
		h10.2c0,0-0.4,1.6-0.6,3.7H23v-2c0-1.2-0.3-1.5-1.1-1.5h-4.1v6.2H21v-1.8h0.3v4H21v-1.9h-3.1v6.1h4.1c1.2,0,1.4-1.2,1.8-3.7H24
		c0,0-0.3,1.8-0.3,4H13.7z M30.5,25.3l-4.8-13h-1.4V12h5.5v0.3h-1.6l3.6,9.9l2.4-6.5L33,12.3h-1.5V12h5.6v0.3h-1.7l3.6,9.8l3-8.8
		c0.2-0.7-0.2-1.1-1.1-1.1h-0.6V12h3.7v0.3h-0.4c-0.6,0-1,0.3-1.3,1.2l-4.1,11.8h-0.6l-3.4-9.1l-3.4,9.1
		C31.1,25.3,30.5,25.3,30.5,25.3z"/>
</g>
</svg>
